PathFileType	4	(X/Y/Z)	C:/Users/beibeiliu/ov580/test_trc/capture2\sequence.32_training_dense_left.trc
DataRate	CameraRate	NumFrames	NumMarkers	Units	OrigDataRate	OrigDataStartFrame	OrigNumFrames
120	120	22	19	mm	120	287	327
Frame#	Time	ThumbCMC			ThumbMCP			ThumbIP			ThumbTip			IndexMCP			IndexPIP			IndexTip			MiddleMCP			MiddlePIP			MiddleTip			RingMCP			RingPIP			RingTip			PinkyMCP			PinkyPIP			PinkyTip			BackHand1			BackHand2			BackHand3	
		X0	Y0	Z0	X1	Y1	Z1	X2	Y2	Z2	X3	Y3	Z3	X4	Y4	Z4	X5	Y5	Z5	X6	Y6	Z6	X7	Y7	Z7	X8	Y8	Z8	X9	Y9	Z9	X10	Y10	Z10	X11	Y11	Z11	X12	Y12	Z12	X13	Y13	Z13	X14	Y14	Z14	X15	Y15	Z15	X16	Y16	Z16	X17	Y17	Z17	X18	Y18	Z18	
286	2.38333	-131.691	88.273	63.7878	-115.706	109.531	55.6812	-104.539	124.323	31.8862	-93.0098	118.478	8.81187	-144.606	92.4475	-7.97076	-133.396	103.098	-32.6691	-104.553	101.906	-40.447	-145.665	64.5065	-13.9445	-134.663	68.3274	-44.4949	-96.79	73.2125	-49.5385	-137.96	48.8372	-17.5443	-116.669	48.7234	-41.4891	-84.8297	58.7285	-31.2033	-122.154	23.1418	-6.86316	-101.795	25.9366	-27.0166	-73.6435	43.9117	-22.0563	-146.752	37.1772	29.1587	-153.545	34.4748	59.4357	-154.525	67.0385	52.6531	
287	2.39167	-131.467	90.9959	67.3018	-113.471	110.386	51.597	-101.038	127.443	32.4009	-87.8706	119.72	8.05467	-143.612	96.7084	-7.6281	-132.277	104.489	-32.5867	-97.2339	107.085	-37.0104	-145.623	68.2035	-14.2804	-130.994	74.4944	-47.2654	-97.3402	77.6414	-48.9121	-135.888	49.7964	-15.9321	-119.091	53.4215	-40.9366	-85.6651	63.3375	-32.126	-121.204	27.1123	-6.87544	-99.0269	31.102	-26.4238	-75.8697	47.8975	-20.788	-148.459	38.6826	28.221	-153.891	32.9111	61.5339	-154.31	69.3424	51.5712	
288	2.4	-129.657	91.6074	65.9682	-111.277	115.594	55.5425	-98.4368	127.79	32.3211	-86.7531	120.954	12.8878	-141.781	95.1248	-7.36611	-130.067	108.477	-32.3869	-97.4218	108.323	-37.4583	-144.86	68.7667	-18.5899	-130.876	73.1154	-46.1042	-93.7286	80.6795	-49.0541	-135.45	47.3335	-16.1495	-118.364	56.0802	-39.988	-87.9096	65.3204	-32.888	-120.186	28.8327	-8.37647	-95.2855	34.7025	-26.3446	-70.9495	52.8578	-18.5747	-148.258	39.1866	31.9506	-151.332	35.7614	60.3124	-152.803	69.1566	47.0977	
289	2.40833	-130.036	93.8533	68.0163	-110.491	115.607	56.0769	-96.6791	128.537	32.0207	-84.1376	124.423	11.1395	-139.649	98.1082	-3.70568	-125.173	107.269	-33.073	-94.9167	106.39	-36.1433	-142.773	70.8962	-14.7921	-132.424	74.343	-45.371	-91.265	80.5238	-47.9564	-135.15	52.8914	-18.1153	-115.826	58.1118	-40.8805	-82.7459	63.6101	-30.6146	-118.57	30.4619	-7.253	-98.2225	33.5962	-26.4204	-70.5392	53.8588	-17.3289	-145.214	42.1043	29.0835	-153.324	36.2283	59.1052	-153.909	67.656	49.128	
290	2.41667	-128.768	95.9942	68.3286	-109.542	117.806	53.5761	-95.3294	129.879	31.2636	-82.787	119.035	9.35392	-138.677	99.2931	-3.12029	-123.789	108.61	-33.3913	-95.3841	108.953	-36.5641	-143.286	73.2083	-18.8458	-129.169	76.3114	-46.2779	-93.7383	84.828	-48.6822	-134.083	53.9426	-18.2422	-114.318	57.2732	-41.1242	-82.3355	65.8453	-30.2995	-119.938	30.995	-6.04252	-93.1835	34.4011	-26.4798	-70.2543	49.6677	-16.7653	-147.861	45.4763	33.5128	-152.848	37.5347	58.622	-150.772	69.8153	46.4992	
291	2.425	-128.785	98.1929	66.9372	-108.524	113.814	53.4591	-94.9074	128.375	33.7327	-82.6411	123.846	14.7159	-138.821	103.934	-6.74781	-124.315	108.207	-33.0901	-94.2216	107.453	-37.2053	-143.662	76.128	-15.1619	-131.22	77.0313	-44.8183	-95.6406	84.6676	-48.8348	-134.456	52.3377	-15.427	-116.63	53.9586	-39.7399	-82.9117	65.4234	-31.9369	-120.898	30.2247	-11.0665	-100.212	34.9098	-26.7677	-72.6825	47.4247	-20.7976	-145.288	41.9177	30.5391	-152.665	35.6267	59.3212	-153.119	72.4484	50.0912	
292	2.43333	-126.519	98.4485	67.7607	-106.793	113.539	55.6962	-93.6743	128.776	38.8509	-80.8072	126.208	13.9676	-137.544	99.4315	-5.1897	-127.245	109.107	-29.731	-96.4133	108.113	-38.9616	-142.098	73.5827	-14.8613	-129.501	81.6759	-45.5214	-98.6975	83.3444	-52.3586	-136.374	55.7056	-15.1308	-115.816	57.7936	-42.316	-87.2981	62.0663	-37.9793	-124.933	30.42	-4.57713	-106.888	32.1151	-28.5785	-79.8633	46.0175	-28.8098	-146.621	42.8477	33.6715	-150.946	42.9379	59.0416	-152.029	73.6889	51.6393	
293	2.44167	-122.772	94.0844	73.726	-101.453	112.54	63.3764	-86.8473	129.563	40.4272	-76.1794	132.211	24.1105	-135.418	102.602	2.48063	-127.681	112.771	-28.2884	-103.368	114.522	-42.706	-144.105	81.5456	-14.0648	-133.205	81.7888	-42.4362	-102.026	80.1981	-56.4152	-137.994	58.5269	-9.55567	-126.845	60.5173	-38.5015	-94.0107	61.3204	-46.9736	-129.352	37.8964	-3.80544	-116.71	36.6625	-30.1865	-88.9105	43.9488	-39.206	-147.838	46.2728	31.5672	-153.878	43.5424	58.9118	-148.14	77.2163	52.7608	
294	2.45	-114.529	96.0423	74.1657	-93.922	108.636	62.3436	-79.8279	124.037	49.6467	-67.0515	133.572	33.2713	-131.067	106.946	7.19681	-127.834	116.596	-23.3327	-105.955	119.579	-46.5069	-141.74	82.7115	-10.709	-137.369	86.9537	-38.415	-108.297	87.0932	-64.12	-139.764	61.0485	-9.47182	-130.645	62.4702	-41.0874	-105.086	62.4	-56.3185	-136.842	38.0399	-7.33049	-125.586	36.077	-32.4827	-100.967	39.5657	-49.725	-148.123	52.1346	33.5363	-155.826	42.7882	64.7801	-145.636	77.5051	58.6182	
295	2.45833	-109.791	89.1925	76.5049	-83.8083	105.291	66.747	-69.8318	118.038	53.2141	-54.273	135.049	41.1822	-125.247	113.45	6.13508	-122.717	121.568	-19.9442	-113.345	127.535	-43.1071	-137.685	91.3552	-4.40415	-138.5	94.3948	-34.3969	-121.411	94.7364	-65.9965	-139.448	69.3181	-7.73422	-135.892	69.4326	-42.0596	-117.39	73.5376	-61.169	-139.678	42.141	-4.59278	-135.792	42.4403	-31.9988	-121.799	41.4337	-56.8184	-148.299	59.392	37.6747	-153.997	49.698	62.0184	-140.21	80.6169	59.7624	
296	2.46667	-104.249	87.7531	78.0576	-79.0406	96.9369	66.9427	-59.2633	116.745	53.9912	-44.7679	128.814	46.8665	-118.092	114.576	7.6982	-116.018	126.128	-11.4389	-114.792	133.82	-39.3226	-134.255	98.6571	-5.20192	-135.124	105.451	-32.2387	-131.481	105.334	-61.2703	-139.332	74.6648	-7.05127	-140.316	76.5097	-37.4989	-131.087	78.903	-62.6089	-142.268	49.5468	-7.70069	-139.773	50.7829	-30.4623	-138.669	48.9194	-52.387	-149.677	63.1396	34.1936	-151.597	54.9363	65.0271	-137.157	83.7729	62.2482	
297	2.475	-97.4915	89.1277	74.7675	-74.8951	92.2008	65.8179	-54.0359	108.487	57.5214	-37.2923	120.703	48.9407	-111.982	116.835	9.82689	-109.068	129.311	-10.9159	-113.336	138.664	-34.9234	-133.651	97.5653	-3.49597	-132.947	109.863	-29.0649	-134.661	117.391	-58.8392	-138.833	79.2047	-9.18595	-141.234	80.1965	-33.8713	-135.958	90.3306	-60.7726	-143.346	51.4949	-5.80159	-141.497	53.6329	-26.1302	-146.136	52.3925	-55.5492	-147.008	63.8532	37.7675	-155.212	56.5324	62.2224	-132.296	84.9882	57.7182	
298	2.48333	-96.0171	86.0446	74.3822	-70.4143	90.6007	68.5022	-50.2323	103.805	54.9375	-34.5224	113.99	50.3311	-110.817	116.7	8.40959	-107.794	128.811	-11.9681	-110.598	143.984	-31.8445	-129.56	105.495	-4.3491	-132.576	113.833	-26.1823	-139.493	122.33	-56.7736	-137.129	84.743	-10.0756	-139.176	90.0431	-35.2419	-141.012	93.1481	-56.8726	-142.681	58.7346	-9.02702	-144.534	54.897	-31.4045	-152.466	54.105	-49.5037	-145.647	70.436	37.9646	-153.042	61.2394	64.2095	-131.21	87.0754	59.918	
299	2.49167	-94.5317	85.2231	73.516	-72.431	85.5675	65.5233	-48.2104	100.75	53.6868	-29.5026	112.682	47.3283	-109.501	117.502	8.02578	-107.399	130.081	-9.91331	-108.385	142.597	-27.108	-133.033	105.163	-5.8269	-133.955	115.2	-25.2467	-136.763	127.068	-49.7508	-140.588	82.3199	-7.91567	-142.81	88.9581	-34.8635	-141.488	98.3408	-55.3895	-147.225	57.1338	-7.11223	-145.04	59.208	-26.836	-155.174	62.173	-54.4142	-149.013	71.5576	38.0554	-155.46	62.0521	62.9049	-130.852	87.1498	59.4751	
300	2.5	-96.756	79.7284	77.3401	-69.5986	85.3596	62.5428	-50.4036	94.597	51.5231	-29.3369	104.339	43.2133	-111.242	118.286	10.1232	-102.952	133.854	-5.52873	-106.327	145.334	-28.0258	-134.104	106.264	-2.65255	-134.424	118.671	-25.0934	-134.431	130.14	-49.8619	-143.326	88.0285	-9.37006	-142.394	93.9085	-30.5549	-143.007	102.605	-60.7711	-150.996	61.8728	-10.7934	-151.381	60.5165	-29.6159	-155.619	62.7839	-52.015	-148.779	72.4743	39.3652	-154.682	66.3325	63.6009	-133.541	86.6824	60.1292	
301	2.50833	-97.0909	78.5637	73.9023	-68.8798	82.8633	62.0992	-47.8781	90.1866	52.9143	-32.6868	97.4228	40.2051	-110.39	117.632	15.3927	-102.706	134.804	-3.19056	-97.8087	148.879	-25.1549	-133.533	108.083	3.23456	-134.773	123.339	-26.6969	-134.558	130.735	-51.6705	-142.078	92.243	-3.80567	-146.501	98.6767	-31.7256	-137.108	108.427	-59.7288	-154.832	65.8398	-7.97909	-154.302	65.1972	-30.9796	-155.294	67.2568	-54.6705	-152.859	72.543	39.7197	-158.056	65.2337	65.0695	-132.189	90.0489	63.8531	
302	2.51667	-95.2743	77.5689	76.9271	-67.9291	80.6275	62.8567	-50.9437	87.2442	51.8118	-31.9146	96.2204	31.6374	-107.355	121.567	21.5359	-101.789	137.701	0.510093	-93.0962	149.158	-27.1253	-135.048	113.162	4.12239	-133.504	127.598	-23.0166	-127.246	133.913	-48.6681	-145.581	98.4718	-3.13081	-147.587	103.122	-29.2789	-132.858	108.306	-58.8583	-154.766	71.3024	-5.99771	-153.931	72.6283	-30.8369	-150.447	69.9346	-56.8581	-153.296	75.5606	42.6548	-159.557	63.1805	65.7981	-131.157	87.5456	68.4118	
303	2.525	-97.2197	74.1174	77.2979	-69.102	78.7731	63.3241	-52.7745	85.2596	48.2419	-36.3542	92.4034	28.7333	-111.284	121.403	22.5692	-102.392	139.554	-1.4977	-91.4752	145.66	-24.4578	-136.057	118.391	7.33417	-134.664	128.781	-21.2419	-120.12	131.675	-49.3143	-147.913	97.0256	1.80013	-143.807	109.624	-24.7355	-127.56	106.443	-52.7281	-154.476	75.7486	-2.04925	-154.586	74.8382	-32.9319	-144.242	72.2311	-53.8453	-153.293	78.5962	41.6578	-161.165	65.8673	65.841	-132.879	86.943	69.3728	
304	2.53333	-97.3673	73.7423	76.1746	-68.3683	76.0746	63.0835	-54.0158	84.9122	43.3626	-45.1601	89.8882	19.1557	-109.412	123.028	25.0006	-100.576	140.876	0.960561	-89.0448	141.438	-24.9929	-136.818	116.391	11.0071	-136.066	129.831	-14.6721	-119.197	126.228	-47.3393	-147.151	103.923	2.83212	-140.526	113.477	-25.5084	-124.467	104.652	-46.4753	-156.575	78.6193	-2.62436	-151.634	80.4179	-29.4167	-135.679	74.5471	-52.2321	-152.896	79.5287	48.3153	-155.632	66.6129	69.3801	-129.58	89.6148	71.5042	
305	2.54167	-96.4341	74.7135	75.9621	-72.7956	74.0148	60.4621	-52.5281	84.2286	41.028	-47.8322	87.3582	14.3571	-105.987	127.374	27.4181	-100.522	142.138	4.22856	-83.0968	136.484	-24.8898	-135.829	116.453	14.9235	-132.755	132.506	-12.8598	-112.183	124.27	-42.7563	-147.91	103.426	5.58165	-144.572	111.364	-23.5799	-117.823	101.353	-41.2957	-158.146	77.6483	1.5287	-152.101	81.5438	-28.9329	-127.127	73.3713	-47.2438	-152.818	79.0274	47.1791	-160.058	68.0845	68.1824	-131.498	87.6285	72.9777	
306	2.55	-97.2383	71.0581	78.109	-72.6797	73.3786	57.9142	-54.0439	83.6318	36.7009	-50.7365	85.5701	13.3599	-109.488	124.82	27.0534	-99.351	140.41	1.51025	-83.7264	130.861	-21.9458	-135.393	118.399	15.3418	-131.987	131.465	-13.8172	-108.66	118.293	-40.5389	-148.701	104.431	4.39518	-137.067	110.729	-25.5276	-116.551	93.8089	-38.4103	-155.189	80.9877	2.14551	-148.106	81.446	-28.3901	-125.038	69.3027	-42.1512	-152.209	81.1575	46.9926	-158.747	67.2074	69.9258	-133.568	87.3246	71.3339	
307	2.55833	-94.1941	72.2019	79.9889	-68.1717	72.0088	61.5397	-55.6454	80.2827	37.953	-56.4558	83.1178	9.81793	-108.42	125.018	29.9379	-100.251	139.795	3.32889	-85.7028	127.936	-20.3656	-135.479	118.232	14.4892	-130.029	130.339	-17.637	-108.634	114.102	-37.6859	-145.102	106.771	5.80438	-135.187	110.359	-23.3984	-115.162	89.2139	-34.8095	-157.162	80.9138	-0.469818	-148.757	81.3245	-27.5461	-120.031	67.2301	-38.7394	-153.246	79.0843	47.4856	-156.923	68.4712	70.1227	-130.068	88.795	74.1495	
